<?xml version="1.0" encoding="UTF-8"?>
<svg id="Layer_2" data-name="Layer 2" xmlns="http://www.w3.org/2000/svg" viewBox="0 0 552.08 211.67">
  <defs>
    <style>
      .cls-1 {
        fill: #e7b95f;
      }

      .cls-2 {
        fill: #2a2a2a;
      }

      .cls-3 {
        fill: #fff;
      }

      .cls-4 {
        fill: #741718;
      }
    </style>
  </defs>
  <g id="Layer_1-2" data-name="Layer 1">
    <g>
      <g>
        <path class="cls-4" d="M105.84,0C47.39,0,0,47.38,0,105.83s47.39,105.83,105.84,105.83,105.83-47.38,105.83-105.83S164.29,0,105.84,0Z"/>
        <path class="cls-1" d="M105.84,27.06c21.04,0,40.82,8.19,55.7,23.07,14.88,14.88,23.07,34.66,23.07,55.7s-8.19,40.82-23.07,55.7c-14.88,14.88-34.66,23.07-55.7,23.07s-40.82-8.19-55.7-23.07c-14.88-14.88-23.07-34.66-23.07-55.7s8.19-40.82,23.07-55.7c14.88-14.88,34.66-23.07,55.7-23.07M105.84,21.08c-46.81,0-84.76,37.95-84.76,84.76s37.95,84.76,84.76,84.76,84.76-37.95,84.76-84.76S152.65,21.08,105.84,21.08h0Z"/>
        <g>
          <path class="cls-1" d="M179.96,125.56c-10.87,0-19.72-8.85-19.72-19.73s8.85-19.72,19.72-19.72,19.72,8.85,19.72,19.72-8.85,19.73-19.72,19.73Z"/>
          <path class="cls-4" d="M179.96,89.53c8.99,0,16.3,7.32,16.3,16.3s-7.31,16.31-16.3,16.31-16.3-7.32-16.3-16.31,7.31-16.3,16.3-16.3M179.96,82.69c-12.76,0-23.14,10.38-23.14,23.14s10.38,23.15,23.14,23.15,23.14-10.38,23.14-23.15-10.38-23.14-23.14-23.14h0Z"/>
        </g>
        <polygon class="cls-1" points="85.99 152.01 92.8 158.82 118.88 158.82 125.69 152.01 85.99 152.01"/>
        <polygon class="cls-1" points="152.01 85.98 152.01 125.69 158.82 118.88 158.82 92.79 152.01 85.98"/>
        <polygon class="cls-1" points="52.85 92.79 52.85 118.88 59.66 125.69 59.66 85.98 52.85 92.79"/>
        <polygon class="cls-1" points="118.88 52.85 92.8 52.85 85.99 59.66 125.69 59.66 118.88 52.85"/>
        <path class="cls-3" d="M72.02,57.83l-14.19,14.19c-1.84,1.84-4.98.54-4.98-2.06v-14.19c0-1.61,1.31-2.92,2.92-2.92h14.19c2.6,0,3.9,3.14,2.06,4.98Z"/>
        <path class="cls-3" d="M69.95,158.82h-14.19c-1.61,0-2.92-1.31-2.92-2.92v-14.19c0-2.6,3.14-3.9,4.98-2.06l14.19,14.19c1.84,1.84.54,4.98-2.06,4.98Z"/>
        <path class="cls-3" d="M158.82,141.72v14.19c0,1.61-1.31,2.92-2.92,2.92h-14.19c-2.6,0-3.9-3.14-2.06-4.98l14.19-14.19c1.84-1.84,4.98-.54,4.98,2.06Z"/>
        <path class="cls-3" d="M158.82,55.77v14.19c0,2.6-3.14,3.9-4.98,2.06l-14.19-14.19c-1.84-1.84-.54-4.98,2.06-4.98h14.19c1.61,0,2.92,1.31,2.92,2.92Z"/>
        <path class="cls-1" d="M59.66,133.33v4.51c0,.48.19.94.53,1.28l12.36,12.36c.34.34.8.53,1.28.53h4.51c1.61,0,2.42-1.95,1.28-3.09l-16.87-16.87c-1.14-1.14-3.09-.33-3.09,1.28Z"/>
        <path class="cls-1" d="M59.66,133.33v4.51c0,.48.19.94.53,1.28l12.36,12.36c.34.34.8.53,1.28.53h4.51c1.61,0,2.42-1.95,1.28-3.09l-16.87-16.87c-1.14-1.14-3.09-.33-3.09,1.28Z"/>
        <path class="cls-1" d="M89.81,42.93l-46.87,46.87c1.87,1.31,3.5,2.94,4.81,4.82l5.1-5.1,6.81-6.81,23.05-23.05,11.91-11.91c-1.87-1.31-3.5-2.94-4.82-4.82Z"/>
        <path class="cls-1" d="M152.01,73.08l-13.42-13.42-16.73-16.73c-1.31,1.87-2.94,3.5-4.82,4.82l11.91,11.91,23.05,23.05,6.81,6.81,5.1,5.1c1.31-1.87,2.94-3.5,4.81-4.82l-16.73-16.73Z"/>
        <path class="cls-1" d="M47.75,117.05c-1.31,1.87-2.94,3.5-4.82,4.81l16.73,16.73,13.42,13.42,16.73,16.73c1.31-1.87,2.94-3.5,4.82-4.82l-46.87-46.87Z"/>
        <path class="cls-1" d="M163.93,117.05l-5.1,5.1-41.77,41.77c1.87,1.31,3.5,2.94,4.82,4.82l16.73-16.73,13.42-13.42,16.73-16.73c-1.87-1.31-3.5-2.94-4.81-4.82Z"/>
        <g>
          <path class="cls-1" d="M105.83,51.44c-10.87,0-19.72-8.85-19.72-19.72s8.85-19.72,19.72-19.72,19.73,8.85,19.73,19.72-8.85,19.72-19.73,19.72ZM105.83,25.65c-3.35,0-6.07,2.72-6.07,6.07s2.72,6.07,6.07,6.07,6.07-2.72,6.07-6.07-2.72-6.07-6.07-6.07Z"/>
          <path class="cls-4" d="M105.83,15.41c8.99,0,16.31,7.31,16.31,16.3s-7.32,16.3-16.31,16.3-16.3-7.31-16.3-16.3,7.32-16.3,16.3-16.3M105.83,41.21c5.24,0,9.49-4.26,9.49-9.49s-4.26-9.49-9.49-9.49-9.49,4.26-9.49,9.49,4.26,9.49,9.49,9.49M105.83,8.57c-12.76,0-23.14,10.38-23.14,23.14s10.38,23.14,23.14,23.14,23.15-10.38,23.15-23.14-10.38-23.14-23.15-23.14h0ZM105.83,34.37c-1.46,0-2.65-1.19-2.65-2.65s1.19-2.65,2.65-2.65,2.65,1.19,2.65,2.65-1.19,2.65-2.65,2.65h0Z"/>
        </g>
        <path class="cls-4" d="M115.33,31.72c0,5.23-4.26,9.49-9.49,9.49s-9.49-4.26-9.49-9.49,4.26-9.49,9.49-9.49,9.49,4.26,9.49,9.49Z"/>
        <path class="cls-4" d="M179.96,96.34c-5.23,0-9.49,4.26-9.49,9.49s4.26,9.49,9.49,9.49,9.49-4.26,9.49-9.49-4.26-9.49-9.49-9.49Z"/>
        <path class="cls-3" d="M105.84,95.53c2.75,0,5.34,1.07,7.28,3.02,1.95,1.95,3.02,4.53,3.02,7.28s-1.07,5.34-3.02,7.28c-1.95,1.95-4.53,3.02-7.28,3.02s-5.34-1.07-7.28-3.02c-1.95-1.95-3.02-4.53-3.02-7.28s1.07-5.34,3.02-7.28c1.95-1.95,4.53-3.02,7.28-3.02M105.84,87.93c-9.89,0-17.9,8.02-17.9,17.9s8.02,17.9,17.9,17.9,17.9-8.02,17.9-17.9-8.02-17.9-17.9-17.9h0Z"/>
        <g>
          <path class="cls-1" d="M31.72,125.56c-10.87,0-19.72-8.85-19.72-19.73s8.85-19.72,19.72-19.72,19.72,8.85,19.72,19.72-8.85,19.73-19.72,19.73ZM31.72,99.76c-3.35,0-6.07,2.72-6.07,6.07s2.72,6.07,6.07,6.07,6.07-2.72,6.07-6.07-2.72-6.07-6.07-6.07Z"/>
          <path class="cls-4" d="M31.72,89.53c8.99,0,16.3,7.32,16.3,16.3s-7.31,16.31-16.3,16.31-16.3-7.32-16.3-16.31,7.31-16.3,16.3-16.3M31.72,115.33c5.23,0,9.49-4.26,9.49-9.49s-4.26-9.49-9.49-9.49-9.49,4.26-9.49,9.49,4.26,9.49,9.49,9.49M31.72,82.69c-12.76,0-23.14,10.38-23.14,23.14s10.38,23.15,23.14,23.15,23.14-10.38,23.14-23.15-10.38-23.14-23.14-23.14h0ZM31.72,108.49c-1.46,0-2.65-1.19-2.65-2.65s1.19-2.65,2.65-2.65,2.65,1.19,2.65,2.65-1.19,2.65-2.65,2.65h0Z"/>
        </g>
        <path class="cls-4" d="M41.21,105.83c0,5.24-4.26,9.49-9.49,9.49s-9.49-4.26-9.49-9.49,4.26-9.49,9.49-9.49,9.49,4.26,9.49,9.49Z"/>
        <g>
          <path class="cls-1" d="M105.83,199.68c-10.87,0-19.72-8.85-19.72-19.72s8.85-19.72,19.72-19.72,19.73,8.85,19.73,19.72-8.85,19.72-19.73,19.72ZM105.83,173.89c-3.35,0-6.07,2.72-6.07,6.07s2.72,6.07,6.07,6.07,6.07-2.72,6.07-6.07-2.72-6.07-6.07-6.07Z"/>
          <path class="cls-4" d="M105.83,163.65c8.99,0,16.31,7.31,16.31,16.3s-7.32,16.3-16.31,16.3-16.3-7.31-16.3-16.3,7.32-16.3,16.3-16.3M105.83,189.44c5.24,0,9.49-4.26,9.49-9.49s-4.26-9.49-9.49-9.49-9.49,4.26-9.49,9.49,4.26,9.49,9.49,9.49M105.83,156.81c-12.76,0-23.14,10.38-23.14,23.14s10.38,23.14,23.14,23.14,23.15-10.38,23.15-23.14-10.38-23.14-23.15-23.14h0ZM105.83,182.6c-1.46,0-2.65-1.19-2.65-2.65s1.19-2.65,2.65-2.65,2.65,1.19,2.65,2.65-1.19,2.65-2.65,2.65h0Z"/>
        </g>
        <path class="cls-4" d="M115.33,179.95c0,5.23-4.26,9.49-9.49,9.49s-9.49-4.26-9.49-9.49,4.26-9.49,9.49-9.49,9.49,4.26,9.49,9.49Z"/>
        <g>
          <path class="cls-1" d="M105.36,62.14h0c6.19,5.67,6.62,15.29.95,21.48h0s0,0,0,0c-6.19-5.67-6.62-15.29-.95-21.48h0Z"/>
          <path class="cls-1" d="M85.09,67.37h0c8.12,2.13,12.98,10.44,10.84,18.57h0s0,0,0,0c-8.12-2.13-12.98-10.44-10.84-18.57h0Z"/>
          <path class="cls-1" d="M69.61,81.39h0c8.19-1.87,16.34,3.25,18.21,11.44h0s0,0,0,0c-8.19,1.87-16.34-3.25-18.21-11.44h0Z"/>
          <path class="cls-1" d="M62.4,101.05h0c6.37-5.47,15.97-4.75,21.44,1.62h0s0,0,0,0c-6.37,5.47-15.97,4.75-21.44-1.62h0Z"/>
          <path class="cls-1" d="M65.15,121.79h0c3.1-7.8,11.94-11.61,19.74-8.51h0s0,0,0,0c-3.1,7.8-11.94,11.61-19.74,8.51h0Z"/>
          <path class="cls-1" d="M77.22,138.85h0c-.87-8.35,5.19-15.83,13.54-16.7h0s0,0,0,0c.87,8.35-5.19,15.83-13.54,16.7h0Z"/>
          <path class="cls-1" d="M95.84,148.38h0c-4.66-6.98-2.78-16.42,4.2-21.09h0s0,0,0,0c4.66,6.98,2.78,16.42-4.2,21.09h0Z"/>
          <path class="cls-1" d="M116.75,148.15h0c-7.37-4.03-10.08-13.26-6.05-20.63h0s0,0,0,0c7.37,4.03,10.08,13.26,6.05,20.63h0Z"/>
          <path class="cls-1" d="M135.17,138.22h0c-8.4-.13-15.09-7.05-14.96-15.44h0s0,0,0,0c8.4.13,15.09,7.05,14.96,15.44h0Z"/>
          <path class="cls-1" d="M146.86,120.9h0c-7.5,3.78-16.64.76-20.42-6.73h0s0,0,0,0c7.5-3.78,16.64-.76,20.42,6.73h0Z"/>
          <path class="cls-1" d="M149.16,100.11h0c-4.89,6.83-14.39,8.4-21.21,3.51h0s0,0,0,0c4.89-6.83,14.39-8.4,21.21-3.51h0Z"/>
          <path class="cls-1" d="M141.52,80.61h0c-1.14,8.32-8.81,14.14-17.12,13h0,0c1.14-8.32,8.81-14.14,17.12-13h0Z"/>
          <path class="cls-1" d="M125.74,66.93h0c2.84,7.9-1.26,16.61-9.16,19.45h0s0,0,0,0c-2.84-7.9,1.26-16.61,9.16-19.45h0Z"/>
        </g>
      </g>
      <g>
        <path class="cls-2" d="M237.83,93.38c.55.44,1.12.78,1.72,1.03.6.25,1.26.37,1.97.37l1.07,7.8c-1.48,0-2.91-.23-4.31-.7-1.4-.47-2.75-1.16-4.06-2.09l3.61-6.4ZM256.39,87.55c0,4.71-1.22,8.39-3.65,11.04-2.44,2.66-5.82,3.98-10.14,3.98l-1.07-7.8c1.15,0,2.11-.29,2.87-.86.77-.57,1.37-1.4,1.81-2.46.44-1.07.66-2.37.66-3.9h9.52ZM246.86,87.63v-44.66h9.52v44.66h-9.52Z"/>
        <path class="cls-2" d="M287.42,42.97l-14.37,58.29h-9.28l14.37-58.29h9.28ZM273.54,90.5v-7.8h20.93v7.8h-20.93ZM287.58,42.97l14.28,58.29h-9.28l-14.28-58.29h9.28Z"/>
        <path class="cls-2" d="M309.25,101.26v-58.29h9.52v58.29h-9.52Z"/>
        <path class="cls-2" d="M329.86,101.26v-58.29h9.52v58.29h-9.52ZM354.81,101.26l-23.23-58.29h8.7l23.15,58.29h-8.62ZM357.19,101.26v-58.29h9.52v58.29h-9.52Z"/>
        <path class="cls-2" d="M404.48,101.26l-14.37-58.29h9.28l14.37,58.29h-9.28ZM404.64,101.26l14.28-58.29h9.28l-14.28,58.29h-9.28Z"/>
        <path class="cls-2" d="M434.77,101.26v-58.29h9.52v58.29h-9.52Z"/>
        <path class="cls-2" d="M455.38,101.26v-58.29h9.52v58.29h-9.52ZM462.85,50.69v-7.72h7.31v7.72h-7.31ZM462.85,50.69v-7.72h7.31v7.72h-7.31ZM462.85,101.26v-7.8h7.31v7.8h-7.31ZM487.39,58.98h-9.52c0-2.63-.69-4.67-2.05-6.12-1.37-1.45-3.26-2.18-5.66-2.18v-7.72c3.39,0,6.38.68,8.95,2.05,2.57,1.37,4.6,3.26,6.07,5.66,1.48,2.41,2.22,5.17,2.22,8.29ZM487.39,85.25c0,3.12-.74,5.88-2.22,8.29-1.48,2.41-3.5,4.3-6.07,5.66-2.57,1.37-5.56,2.05-8.95,2.05v-7.8c2.41,0,4.3-.72,5.66-2.18,1.37-1.45,2.05-3.46,2.05-6.03h9.52ZM477.87,85.33v-26.43h9.52v26.43h-9.52Z"/>
        <path class="cls-2" d="M496.83,101.26v-58.29h9.52v58.29h-9.52ZM500.12,76.06v-7.8h25.12v7.8h-25.12ZM521.95,101.26v-58.29h9.52v58.29h-9.52Z"/>
        <path class="cls-2" d="M542.56,101.26v-58.29h9.52v58.29h-9.52Z"/>
        <path class="cls-2" d="M245.8,168.7l-10.75-43.63h6.94l10.75,43.63h-6.94ZM245.92,168.7l10.69-43.63h6.94l-10.69,43.63h-6.94Z"/>
        <path class="cls-2" d="M303.53,168.7v-43.63h7.13v43.63h-7.13Z"/>
        <path class="cls-2" d="M352.91,168.7v-43.63h7.13v43.63h-7.13ZM358.5,130.84v-5.78h5.47v5.78h-5.47ZM358.5,130.84v-5.78h5.47v5.78h-5.47ZM358.5,168.7v-5.84h5.47v5.84h-5.47ZM376.88,137.05h-7.13c0-1.97-.51-3.49-1.54-4.58-1.02-1.08-2.44-1.63-4.24-1.63v-5.78c2.54,0,4.77.51,6.7,1.54,1.93,1.02,3.44,2.44,4.55,4.24,1.11,1.8,1.66,3.87,1.66,6.21ZM376.88,156.71c0,2.34-.55,4.4-1.66,6.21-1.11,1.8-2.62,3.22-4.55,4.24-1.93,1.02-4.16,1.54-6.7,1.54v-5.84c1.8,0,3.22-.54,4.24-1.63,1.02-1.09,1.54-2.59,1.54-4.52h7.13ZM369.75,156.78v-19.79h7.13v19.79h-7.13Z"/>
        <path class="cls-2" d="M409.72,168.7v-43.63h7.13v43.63h-7.13ZM412.18,149.83v-5.84h18.81v5.84h-18.81ZM428.53,168.7v-43.63h7.13v43.63h-7.13Z"/>
        <path class="cls-2" d="M483.93,125.06l-10.75,43.63h-6.94l10.75-43.63h6.94ZM473.54,160.65v-5.84h15.67v5.84h-15.67ZM484.05,125.06l10.69,43.63h-6.94l-10.69-43.63h6.94Z"/>
        <path class="cls-2" d="M524.49,168.7v-43.63h7.13v43.63h-7.13ZM543.17,168.7l-17.39-43.63h6.51l17.33,43.63h-6.45ZM544.95,168.7v-43.63h7.13v43.63h-7.13Z"/>
      </g>
    </g>
  </g>
</svg>